<svg width="174" height="174" viewBox="0 0 174 174" fill="none" xmlns="http://www.w3.org/2000/svg">
<path d="M51.203 42.2347C54.9568 42.2347 57.9999 39.1916 57.9999 35.4378C57.9999 31.684 54.9568 28.6409 51.203 28.6409C47.4492 28.6409 44.4061 31.684 44.4061 35.4378C44.4061 39.1916 47.4492 42.2347 51.203 42.2347Z" stroke="#F3F3F3" stroke-width="5" stroke-linecap="round" stroke-linejoin="round"/>
<path d="M146.766 103.407C146.766 103.631 146.584 103.813 146.359 103.813C146.135 103.813 145.953 103.631 145.953 103.407C145.953 103.182 146.135 103 146.359 103C146.584 103 146.766 103.182 146.766 103.407Z" fill="#F3F3F3" stroke="#F3F3F3" stroke-width="5"/>
<path d="M11.7684 138.656H73.4062" stroke="#F3F3F3" stroke-width="5" stroke-linecap="round" stroke-linejoin="round"/>
<path d="M27.1409 27.2816C27.1409 27.5061 26.9589 27.6882 26.7343 27.6882C26.5097 27.6882 26.3277 27.5061 26.3277 27.2816C26.3277 27.057 26.5097 26.875 26.7343 26.875C26.9589 26.875 27.1409 27.057 27.1409 27.2816Z" fill="#F3F3F3" stroke="#F3F3F3" stroke-width="5"/>
<path d="M60.3563 149.531H73.4062V120.56L54.6469 110.881L40.3544 78.8437H10.875" stroke="#F3F3F3" stroke-width="5" stroke-linecap="round" stroke-linejoin="round"/>
<path d="M10.875 149.531H34.8128" stroke="#F3F3F3" stroke-width="5" stroke-linecap="round" stroke-linejoin="round"/>
<path d="M43.9926 87H24.4688V100.739C24.4688 103.585 25.5992 106.314 27.6114 108.326C29.6235 110.338 32.3526 111.469 35.1983 111.469H55.7858" stroke="#F3F3F3" stroke-width="5" stroke-linejoin="round"/>
<path d="M65.25 122.344H73.4062" stroke="#F3F3F3" stroke-width="5" stroke-linecap="round" stroke-linejoin="round"/>
<path d="M47.5781 163.125C54.335 163.125 59.8125 157.647 59.8125 150.891C59.8125 144.134 54.335 138.656 47.5781 138.656C40.8213 138.656 35.3438 144.134 35.3438 150.891C35.3438 157.647 40.8213 163.125 47.5781 163.125Z" stroke="#F3F3F3" stroke-width="5" stroke-linecap="round" stroke-linejoin="round"/>
<path d="M47.5781 154.969C49.8304 154.969 51.6562 153.143 51.6562 150.891C51.6562 148.638 49.8304 146.813 47.5781 146.813C45.3258 146.813 43.5 148.638 43.5 150.891C43.5 153.143 45.3258 154.969 47.5781 154.969Z" stroke="#F3F3F3" stroke-width="5" stroke-linecap="round" stroke-linejoin="round"/>
<path d="M78.6238 81.8896L86.3135 89.5795" stroke="#F3F3F3" stroke-width="5" stroke-linecap="round" stroke-linejoin="round"/>
<path d="M86.3135 81.8896L78.6238 89.5795" stroke="#F3F3F3" stroke-width="5" stroke-linecap="round" stroke-linejoin="round"/>
<path d="M152.25 42.7632V76.125H103.312V42.7632" stroke="#F3F3F3" stroke-width="5" stroke-linecap="round" stroke-linejoin="round"/>
<path d="M160.404 47.5781C159.45 47.5784 158.527 47.2438 157.795 46.6328L127.781 21.6198L97.7663 46.6323C96.9327 47.3 95.8706 47.614 94.808 47.507C93.7454 47.4 92.7671 46.8804 92.0835 46.0599C91.3999 45.2394 91.0654 44.1835 91.1519 43.119C91.2384 42.0545 91.7391 41.0665 92.5463 40.3672L125.171 13.1797C125.905 12.5698 126.828 12.2358 127.782 12.2358C128.736 12.2358 129.66 12.5698 130.393 13.1797L163.018 40.3672C163.663 40.9039 164.126 41.6262 164.344 42.4356C164.563 43.2449 164.527 44.1021 164.241 44.8903C163.956 45.6785 163.434 46.3594 162.747 46.8404C162.06 47.3213 161.242 47.579 160.404 47.5781Z" stroke="#F3F3F3" stroke-width="5" stroke-linecap="round" stroke-linejoin="round"/>
<path d="M119.625 75.4073V51.6562H135.938V75.5432" stroke="#F3F3F3" stroke-width="5" stroke-linecap="round" stroke-linejoin="round"/>
<path d="M127.781 82.9219V93.8597C127.781 96.6027 126.692 99.2333 124.752 101.173C122.812 103.112 120.182 104.202 117.439 104.202H113.655C112.297 104.202 110.952 104.47 109.697 104.989C108.442 105.509 107.302 106.271 106.342 107.231C105.381 108.192 104.619 109.332 104.1 110.587C103.58 111.841 103.312 113.186 103.312 114.544C103.312 117.287 104.402 119.918 106.342 121.858C108.281 123.797 110.912 124.887 113.655 124.887H144.576C147.312 124.887 149.937 125.971 151.876 127.903C153.814 129.835 154.908 132.456 154.918 135.193L154.932 139.152C154.937 140.513 154.673 141.862 154.155 143.121C153.638 144.38 152.877 145.525 151.916 146.489C150.955 147.453 149.813 148.218 148.556 148.74C147.299 149.262 145.951 149.531 144.59 149.531H87" stroke="#F3F3F3" stroke-width="5" stroke-linecap="round" stroke-linejoin="round"/>
</svg>
