<svg width="208" height="208" viewBox="0 0 208 208" fill="none" xmlns="http://www.w3.org/2000/svg">
<path d="M159.79 57.6306C157.881 55.3109 156.081 53.1212 155.22 51.0453C154.294 48.815 154.001 45.8819 153.668 42.7822C153.14 37.6472 152.535 31.8134 148.594 27.885C144.653 23.9565 138.844 23.339 133.697 22.8069C130.593 22.4859 127.664 22.1812 125.43 21.259C123.358 20.3978 121.164 18.594 118.844 16.6847C114.782 13.3453 110.191 9.56311 104.37 9.56311C98.5481 9.56311 93.9494 13.3453 89.8909 16.6847C87.5713 18.594 85.3816 20.3978 83.3056 21.259C81.0753 22.1812 78.1422 22.4778 75.0425 22.8069C69.9075 23.339 64.0738 23.9403 60.1453 27.8809C56.2169 31.8215 55.5994 37.6309 55.0672 42.7822C54.7463 45.8819 54.4416 48.815 53.5194 51.0453C52.6581 53.1212 50.8544 55.3109 48.945 57.6306C45.6097 61.6931 41.8275 66.2837 41.8275 72.1094C41.8275 77.935 45.6097 82.5297 48.945 86.584C50.8544 88.9037 52.6581 91.0975 53.5194 93.1694C54.4416 95.3997 54.7381 98.3328 55.0672 101.437C55.5994 106.572 56.2006 112.405 60.1453 116.334C64.09 120.262 69.8953 120.876 75.0425 121.408C78.1422 121.729 81.0753 122.033 83.3056 122.96C85.3816 123.817 87.5713 125.621 89.8909 127.53C93.9534 130.869 98.5481 134.652 104.37 134.652C110.191 134.652 114.79 130.869 118.844 127.53C121.164 125.621 123.358 123.817 125.43 122.96C127.664 122.033 130.593 121.741 133.697 121.408C138.832 120.88 144.666 120.274 148.594 116.334C152.522 112.393 153.14 106.584 153.668 101.437C153.989 98.3328 154.294 95.4037 155.22 93.1694C156.081 91.0975 157.881 88.9037 159.79 86.584C163.13 82.5215 166.912 77.9309 166.912 72.1094C166.912 66.2878 163.13 61.689 159.79 57.6306ZM154.143 81.9365C151.978 84.569 149.74 87.2909 148.456 90.3703C147.123 93.5878 146.75 97.1953 146.388 100.681C145.941 104.987 145.523 109.054 143.414 111.162C141.306 113.271 137.239 113.689 132.933 114.136C129.448 114.497 125.84 114.871 122.623 116.204C119.543 117.479 116.821 119.718 114.193 121.891C110.78 124.698 107.563 127.347 104.362 127.347C101.16 127.347 97.9388 124.698 94.5303 121.891C91.8978 119.726 89.1759 117.487 86.1006 116.204C82.8831 114.871 79.2756 114.497 75.7859 114.136C71.4797 113.689 67.4131 113.271 65.3047 111.162C63.1962 109.054 62.7778 104.987 62.335 100.681C61.9734 97.1953 61.5997 93.5878 60.2631 90.3703C58.9875 87.2909 56.7491 84.569 54.5756 81.9365C51.7887 78.5281 49.1562 75.3106 49.1562 72.1094C49.1562 68.9081 51.805 65.6866 54.6081 62.2781C56.7734 59.6456 59.0119 56.9237 60.2956 53.8444C61.6322 50.6309 62.0059 47.0234 62.3675 43.5337C62.8103 39.2275 63.2328 35.1609 65.3412 33.0525C67.4497 30.944 71.5 30.5256 75.7941 30.0625C79.2838 29.7212 82.875 29.3475 86.125 28.0312C89.2003 26.7556 91.9222 24.5172 94.5547 22.3437C97.9631 19.5406 101.185 16.8878 104.386 16.8878C107.587 16.8878 110.805 19.5406 114.217 22.3437C116.846 24.509 119.568 26.7475 122.647 28.0312C125.864 29.3678 129.472 29.7415 132.958 30.099C137.264 30.5459 141.33 30.9684 143.439 33.0728C145.547 35.1772 145.966 39.2478 146.413 43.554C146.774 47.0437 147.148 50.6512 148.48 53.8647C149.756 56.944 151.994 59.6659 154.168 62.2984C156.975 65.7069 159.624 68.9284 159.624 72.1297C159.624 75.3309 156.951 78.5281 154.143 81.9365Z" fill="#3F7B6A"/>
<path d="M105.219 38.5003C98.3978 38.4995 91.7298 40.5214 86.0579 44.3104C80.3861 48.0993 75.9653 53.4851 73.3544 59.7866C70.7436 66.0881 70.0601 73.0224 71.3903 79.7124C72.7205 86.4024 76.0047 92.5477 80.8276 97.3711C85.6504 102.195 91.7954 105.479 98.4852 106.81C105.175 108.141 112.109 107.459 118.411 104.849C124.713 102.239 130.099 97.8184 133.889 92.147C137.679 86.4756 139.701 79.8078 139.701 72.9869C139.701 63.8412 136.068 55.07 129.602 48.6026C123.135 42.1352 114.364 38.5014 105.219 38.5003ZM123.821 65.9912C110.728 72.6903 102.326 86.8156 102.241 86.9578C101.907 87.5262 101.446 88.0096 100.895 88.3698C100.343 88.73 99.7146 88.9572 99.06 89.0337C98.8955 89.0532 98.73 89.0627 98.5644 89.0622C97.9888 89.0621 97.4192 88.9454 96.89 88.7192C96.3607 88.493 95.8828 88.1619 95.485 87.7459L85.9666 77.805C85.5792 77.3995 85.2756 76.9218 85.0729 76.3989C84.8702 75.8761 84.7725 75.3185 84.7853 74.7579C84.7982 74.1974 84.9213 73.6448 85.1477 73.1318C85.374 72.6188 85.6992 72.1554 86.1047 71.7681C86.5101 71.3808 86.9879 71.0771 87.5107 70.8744C88.0335 70.6718 88.5912 70.5741 89.1517 70.5869C89.7123 70.5997 90.2649 70.7228 90.7779 70.9492C91.2909 71.1756 91.7542 71.5008 92.1416 71.9062L97.9997 78.0244C101.981 72.5969 109.614 63.6837 119.937 58.3944C120.436 58.1391 120.98 57.9845 121.539 57.9396C122.097 57.8946 122.659 57.9601 123.192 58.1323C123.726 58.3046 124.22 58.5801 124.646 58.9433C125.073 59.3064 125.424 59.7501 125.68 60.2489C125.935 60.7477 126.089 61.2919 126.134 61.8505C126.179 62.409 126.114 62.9709 125.942 63.5041C125.769 64.0374 125.494 64.5315 125.131 64.9582C124.767 65.3849 124.324 65.736 123.825 65.9912H123.821Z" fill="#3F7B6A"/>
<path d="M139.234 142.419C131.682 142.057 117.516 142.911 107.421 152.644C106.374 153.661 105.396 154.746 104.496 155.894C103.595 154.746 102.618 153.661 101.571 152.644C91.4753 142.894 77.3053 142.057 69.7572 142.419C67.3348 142.525 65.0401 143.535 63.3256 145.25C61.6111 146.964 60.601 149.259 60.4947 151.682C60.1372 159.226 60.9862 173.396 70.72 183.491C77.74 190.771 87.9775 194.561 101.189 194.764C101.571 194.764 108.798 194.764 109.834 194.707C122.066 194.159 131.621 190.397 138.271 183.491C148.021 173.396 148.858 159.226 148.501 151.682C148.394 149.258 147.384 146.963 145.668 145.249C143.953 143.534 141.657 142.524 139.234 142.419ZM92.4056 171.031L90.1469 177.856C90.4962 177.978 97.2766 180.367 100.734 187.44C89.8341 187.176 81.5059 184.145 75.985 178.417C68.1566 170.292 67.4944 158.397 67.7991 152.011C67.8259 151.408 68.0778 150.837 68.505 150.41C68.9321 149.984 69.5036 149.733 70.1066 149.707C76.4725 149.402 88.3878 150.065 96.5128 157.893C101.997 163.174 105.003 171.035 105.483 181.265C102.281 176.589 97.7143 173.015 92.4056 171.031ZM133.002 178.405C128.245 183.345 121.392 186.274 112.604 187.155C112.758 186.472 112.84 185.775 112.848 185.075C112.942 176.345 111.536 168.854 108.656 162.667C109.736 160.926 111.025 159.325 112.495 157.897C119.685 150.967 129.833 149.654 136.488 149.654C137.349 149.654 138.153 149.654 138.885 149.711C139.488 149.737 140.059 149.988 140.486 150.414C140.913 150.841 141.165 151.412 141.192 152.015C141.493 158.397 140.835 170.296 133.002 178.417V178.405Z" fill="#3F7B6A"/>
</svg>
