<svg width="168" height="168" viewBox="0 0 168 168" fill="none" xmlns="http://www.w3.org/2000/svg">
<path d="M165.2 66.9455V66.4364C164.945 62.1091 162.145 58.2909 158.073 57.5273C153.491 56.5091 148.655 59.3091 147.127 63.8909C145.6 68.4727 145.855 72.8 146.109 77.1273C146.364 80.1818 146.364 82.7273 146.109 85.7818C145.345 91.6364 141.527 97.7455 134.909 104.873L136.691 102.073C138.473 99.5273 138.727 96.4727 137.709 93.6727C136.691 90.8727 134.145 88.8364 131.345 88.0727C127.782 87.3091 123.964 88.5818 121.673 91.6364C116.073 99.5273 109.964 104.109 104.618 107.927C96.2182 114.291 88.8364 119.636 89.6 134.4L85.0182 154C84.7636 155.273 85.5273 156.8 86.8 157.055C88.0727 157.309 89.6 156.545 89.8546 155.273L94.6909 135.418C94.6909 135.164 94.6909 134.909 94.6909 134.655C93.9273 122.182 99.5273 118.109 107.673 112C113.273 107.673 119.891 103.091 125.745 94.4364C126.764 93.1636 128.291 92.4 130.073 92.9091C131.345 93.1636 132.364 94.1818 132.873 95.4546C133.382 96.7273 133.127 98 132.364 99.2727L121.418 118.109C120.909 119.127 121.164 120.655 121.927 121.418C122.945 122.182 124.218 122.182 125.236 121.418C140.764 107.418 149.927 97.2364 151.2 86.5455C151.709 83.2364 151.455 80.1818 151.455 77.1273C151.2 73.0546 151.2 69.2364 152.218 65.6727C152.982 63.3818 155.018 62.1091 157.055 62.6182C158.836 63.1273 160.109 64.6546 160.109 66.9455V67.4546C160.618 80.6909 160.618 88.0727 154.764 105.891C149.164 122.182 135.418 133.382 124.218 138.473C123.455 138.727 122.945 139.491 122.691 140.255L117.6 162.145C117.345 163.418 118.109 164.945 119.382 165.2C119.636 165.2 119.891 165.2 119.891 165.2C121.164 165.2 122.182 164.436 122.436 163.164L127.273 142.545C139.236 136.945 153.491 124.727 159.345 107.418C165.964 88.5818 165.709 80.4364 165.2 66.9455Z" fill="#F3F3F3"/>
<path d="M78.4 134.4C79.1636 119.636 71.7818 114.036 63.3818 107.927C58.0364 103.855 51.9273 99.5273 46.3273 91.6364C44.0364 88.5818 40.4727 87.0545 36.6546 88.0727C33.6 88.8364 31.3091 90.8727 30.2909 93.6727C29.2727 96.4727 29.5273 99.7818 31.3091 102.073L33.0909 105.127C26.4727 98 22.6546 91.8909 21.8909 86.0364C21.6364 83.2364 21.6364 80.4364 21.8909 77.3818C22.1455 73.0545 22.4 68.7273 20.8727 64.1455C19.3455 59.3091 14.5091 56.5091 9.92728 57.7818C5.85455 58.8 3.05455 62.3636 2.80001 66.6909V67.2C2.29092 80.6909 2.03637 88.5818 8.40001 107.418C14.2546 124.727 28.5091 136.691 40.4727 142.545L45.3091 163.164C45.5636 164.436 46.5818 165.2 47.8546 165.2C48.1091 165.2 48.3636 165.2 48.3636 165.2C49.6364 164.945 50.6546 163.418 50.1455 162.145L45.0546 140.255C44.8 139.491 44.2909 138.727 43.5273 138.473C32.3273 133.382 18.5818 122.182 12.9818 105.891C6.87274 88.0727 7.12728 80.6909 7.63637 67.4545V66.9455C7.63637 64.9091 8.9091 63.1273 10.6909 62.6182C12.7273 62.1091 14.7636 63.3818 15.5273 65.6727C16.8 69.2364 16.5455 73.0545 16.2909 77.1273C16.0364 80.1818 16.0364 83.2364 16.5455 86.5455C17.8182 97.2364 26.9818 107.418 42.5091 121.418C43.5273 122.182 44.8 122.182 45.8182 121.418C46.8364 120.655 47.0909 119.127 46.3273 118.109L35.6364 99.0182C34.8727 98 34.6182 96.4727 35.1273 95.2C35.6364 93.9273 36.6546 92.9091 37.9273 92.6546C39.4546 92.4 41.2364 92.9091 42.2546 94.1818C48.3636 102.582 54.7273 107.418 60.3273 111.745C68.4727 117.855 74.0727 121.927 73.3091 134.4C73.3091 134.655 73.3091 134.909 73.3091 135.164L78.1455 155.018C78.4 156.291 79.9273 157.309 81.2 156.8C82.4727 156.545 83.4909 155.018 82.9818 153.745L78.4 134.4Z" fill="#F3F3F3"/>
<path d="M130.327 57.5273C130.327 43.2727 118.873 31.8182 104.618 31.8182C96.7273 31.8182 89.3455 35.3818 84.5091 41.4909C79.6728 35.3818 72.2909 31.8182 64.4 31.8182C50.1455 31.8182 38.6909 43.2727 38.6909 57.2727C37.9273 66.4364 49.1273 77.8909 62.3637 91.1273C69.4909 98.2546 76.6182 105.382 82.4728 112.764C82.9819 113.273 83.7455 113.782 84.5091 113.782C85.2728 113.782 86.0364 113.527 86.5455 112.764C92.4 105.382 99.5273 98.2546 106.655 91.1273C119.636 77.8909 131.091 66.4364 130.327 57.5273ZM104.618 85.7818L104.109 85.0182C101.564 81.7091 97.7455 79.9273 93.9273 79.9273H75.3455C71.2728 79.9273 67.4546 81.7091 64.9091 85.0182L64.4 85.7818C53.7091 75.0909 43.2728 64.1455 43.7819 57.5273C43.7819 46.0727 52.9455 36.9091 64.4 36.9091C71.7818 36.9091 78.6546 40.7273 82.2182 47.0909C82.7273 47.8546 83.4909 48.3636 84.5091 48.3636C85.2728 48.3636 86.2909 47.8546 86.8 47.0909C90.6182 40.7273 97.2364 36.9091 104.618 36.9091C116.073 36.9091 125.236 46.0727 125.236 57.7818C125.745 64.1455 115.309 74.8364 104.618 85.7818Z" fill="#F3F3F3"/>
<path d="M51.6727 26.4727C52.1818 26.9818 52.9454 27.4909 53.7091 27.4909C54.2182 27.4909 54.9818 27.2364 55.2363 26.9818C56.2545 25.9636 56.5091 24.4364 55.4909 23.4182L51.1636 18.3273C50.1454 17.3091 48.6182 17.0546 47.6 18.0727C46.5818 19.0909 46.3273 20.6182 47.3454 21.6364L51.6727 26.4727Z" fill="#F3F3F3"/>
<path d="M65.6727 17.8182C65.9273 18.8364 66.9455 19.6 68.2182 19.6C68.4728 19.6 68.7273 19.6 68.9818 19.6C70.2546 19.3455 71.0182 17.8182 70.7637 16.5455L68.7273 8.9091C68.4728 7.63637 66.9455 6.87273 65.6727 7.12728C64.4 7.38182 63.6364 8.9091 63.8909 10.1818L65.6727 17.8182Z" fill="#F3F3F3"/>
<path d="M83.4909 17.5636C85.0182 17.5636 86.0364 16.5455 86.2909 15.2727L87.0545 5.85455C87.0545 4.32728 86.0364 3.3091 84.7636 3.05455C83.4909 3.05455 82.2182 4.07273 81.9636 5.34546L81.2 14.7636C80.9454 16.2909 81.9636 17.5636 83.4909 17.5636Z" fill="#F3F3F3"/>
<path d="M97.7455 20.6182C98 20.8727 98.5091 20.8727 98.7636 20.8727C99.7818 20.8727 100.8 20.3636 101.055 19.3455L105.382 9.41819C105.891 8.14547 105.382 6.61819 104.109 6.1091C102.836 5.60001 101.309 6.1091 100.8 7.38183L96.4727 17.3091C95.9636 18.5818 96.4727 20.1091 97.7455 20.6182Z" fill="#F3F3F3"/>
<path d="M112.255 29.5273C113.018 29.5273 113.527 29.2727 114.036 28.7636L122.182 19.6C123.2 18.5818 122.945 17.0546 121.927 16.0364C120.909 15.0182 119.382 15.2727 118.364 16.2909L110.473 25.4546C109.455 26.4727 109.709 28 110.727 29.0182C110.982 29.2727 111.745 29.5273 112.255 29.5273Z" fill="#F3F3F3"/>
<path d="M94.6909 63.6364C94.6909 69.7455 89.8545 74.5818 83.7454 74.5818C77.6364 74.5818 72.8 69.7455 72.8 63.6364C72.8 57.5273 77.6364 52.6909 83.7454 52.6909C89.8545 52.6909 94.6909 57.7818 94.6909 63.6364Z" fill="#F3F3F3"/>
</svg>
