<svg width="356" height="297" viewBox="0 0 356 297" fill="none" xmlns="http://www.w3.org/2000/svg">
<g clip-path="url(#clip0_1_3)">
<path d="M91.1667 254.455L48 254.455L48 230.909L91.1667 230.909L91.1667 207.364L119.944 207.364L119.944 278L91.1666 278L91.1667 254.455ZM91.1667 66.0909L48 66.0909L48 42.5454L91.1667 42.5454L91.1667 19L119.944 19L119.944 89.6364L91.1667 89.6364L91.1667 66.0909ZM263.833 136.727L307 136.727L307 160.273L263.833 160.273L263.833 183.818L235.056 183.818L235.056 113.182L263.833 113.182L263.833 136.727ZM206.278 136.727L206.278 160.273L48 160.273L48 136.727L206.278 136.727ZM148.722 42.5454L307 42.5455L307 66.0909L148.722 66.0909L148.722 42.5454ZM148.722 230.909L307 230.909L307 254.455L148.722 254.455L148.722 230.909Z" fill="#F3F3F3"/>
</g>
<defs>
<clipPath id="clip0_1_3">
<rect width="297" height="356" fill="white" transform="translate(356) rotate(90)"/>
</clipPath>
</defs>
</svg>
