<svg width="186" height="186" viewBox="0 0 186 186" fill="none" xmlns="http://www.w3.org/2000/svg">
<path d="M26.4445 54.0339C28.1605 54.0339 29.5516 52.6428 29.5516 50.9268C29.5516 49.2108 28.1605 47.8197 26.4445 47.8197C24.7285 47.8197 23.3375 49.2108 23.3375 50.9268C23.3375 52.6428 24.7285 54.0339 26.4445 54.0339Z" fill="#F3F3F3"/>
<path d="M58.0555 87.1875H52.3125C42.2923 87.1875 32.6825 91.168 25.5971 98.2534C18.5118 105.339 14.5313 114.949 14.5312 124.969V130.781C14.5319 137.692 16.4292 144.469 20.0165 150.376C23.6037 156.282 28.7432 161.091 34.875 164.278V177.281H52.3125L55.2188 171.469C56.4513 171.58 116.25 171.469 116.25 171.469L119.156 177.281H133.688V165.656C146.735 160.547 157.247 150.708 159.844 136.594L171.469 130.781V110.438H156.938C153.186 102.656 147.087 96.2483 139.5 92.118V72.6563C134.637 72.5814 129.855 73.9129 125.731 76.4908C121.606 79.0687 118.314 82.7831 116.25 87.1875H104.773" stroke="#F3F3F3" stroke-width="5" stroke-linecap="round" stroke-linejoin="round"/>
<path d="M135.141 113.344C137.548 113.344 139.5 111.392 139.5 108.984C139.5 106.577 137.548 104.625 135.141 104.625C132.733 104.625 130.781 106.577 130.781 108.984C130.781 111.392 132.733 113.344 135.141 113.344Z" fill="#F3F3F3"/>
<path d="M46.5 98.8125H116.25" stroke="#F3F3F3" stroke-width="5" stroke-linecap="round" stroke-linejoin="round"/>
<path d="M81.3747 98.8125C97.4255 98.8125 110.437 85.8008 110.437 69.75C110.437 53.6992 97.4255 40.6875 81.3747 40.6875C65.3239 40.6875 52.3122 53.6992 52.3122 69.75C52.3122 85.8008 65.3239 98.8125 81.3747 98.8125Z" stroke="#F3F3F3" stroke-width="5" stroke-linecap="round" stroke-linejoin="round"/>
<path d="M93 55.2188L69.75 84.2812" stroke="#F3F3F3" stroke-width="5" stroke-linecap="round" stroke-linejoin="round"/>
<path d="M71.2031 63.9375C73.6107 63.9375 75.5625 61.9857 75.5625 59.5781C75.5625 57.1705 73.6107 55.2188 71.2031 55.2188C68.7955 55.2188 66.8438 57.1705 66.8438 59.5781C66.8438 61.9857 68.7955 63.9375 71.2031 63.9375Z" stroke="#F3F3F3" stroke-width="5" stroke-linecap="round" stroke-linejoin="round"/>
<path d="M91.5469 84.2812C93.9545 84.2812 95.9062 82.3295 95.9062 79.9219C95.9062 77.5143 93.9545 75.5625 91.5469 75.5625C89.1393 75.5625 87.1875 77.5143 87.1875 79.9219C87.1875 82.3295 89.1393 84.2812 91.5469 84.2812Z" stroke="#F3F3F3" stroke-width="5" stroke-linecap="round" stroke-linejoin="round"/>
<path d="M124.969 40.6875C128.179 40.6875 130.781 38.0852 130.781 34.875C130.781 31.6648 128.179 29.0625 124.969 29.0625C121.759 29.0625 119.156 31.6648 119.156 34.875C119.156 38.0852 121.759 40.6875 124.969 40.6875Z" stroke="#F3F3F3" stroke-width="5" stroke-linecap="round" stroke-linejoin="round"/>
<path d="M85.0078 157.133L99.2958 145.702C100.42 144.843 101.206 143.616 101.517 142.235C101.827 140.855 101.642 139.409 100.995 138.151C100.584 137.411 100.017 136.77 99.3332 136.272C98.6492 135.773 97.8648 135.43 97.0346 135.267C96.2044 135.103 95.3485 135.122 94.5266 135.323C93.7046 135.525 92.9365 135.903 92.2758 136.431L87.1898 140.5V117.719C87.1898 116.178 86.5775 114.699 85.4874 113.609C84.3973 112.519 82.9189 111.907 81.3773 111.907C79.8358 111.907 78.3573 112.519 77.2673 113.609C76.1772 114.699 75.5648 116.178 75.5648 117.719V140.501L70.7806 136.674C69.539 135.659 67.9499 135.171 66.353 135.313C64.756 135.454 63.2778 136.215 62.2342 137.432C61.3086 138.639 60.893 140.16 61.0763 141.67C61.2596 143.18 62.0273 144.557 63.2147 145.508L77.746 157.133C78.7766 157.957 80.0571 158.406 81.3769 158.406C82.6967 158.406 83.9772 157.957 85.0078 157.133Z" stroke="#F3F3F3" stroke-width="5" stroke-linecap="round" stroke-linejoin="round"/>
<path d="M144.007 49.5652L152.726 58.284" stroke="#F3F3F3" stroke-width="5" stroke-linecap="round" stroke-linejoin="round"/>
<path d="M152.726 49.5652L144.007 58.284" stroke="#F3F3F3" stroke-width="5" stroke-linecap="round" stroke-linejoin="round"/>
</svg>
